<?xml version="1.0" encoding="utf-8"?>
<!-- Generator: Adobe Illustrator 19.1.0, SVG Export Plug-In . SVG Version: 6.00 Build 0)  -->
<svg version="1.0" id="レイヤー_1" xmlns="http://www.w3.org/2000/svg" xmlns:xlink="http://www.w3.org/1999/xlink" x="0px"
	 y="0px" width="1024px" height="1024px" viewBox="0 0 1024 1024" enable-background="new 0 0 1024 1024" xml:space="preserve">
<path fill="#FFFFFF" d="M783.094,999.245H240.906c-119.377,0-216.151-96.774-216.151-216.151V240.906
	c0-119.377,96.774-216.151,216.151-216.151h542.188c119.377,0,216.151,96.774,216.151,216.151v542.188
	C999.245,902.471,902.471,999.245,783.094,999.245z"/>
<g>
	<path d="M683.6,212.799c7.2-12.8,17.601-17.6,28-17.6c7.2,0,15.2,2.4,22.4,7.2c12,7.2,20,17.6,20,29.6c0,5.6-1.6,11.2-5.6,17.6
		L612.4,461.6h112.001c17.6,0,27.2,8,27.2,26.4c0,19.2-10.4,28-27.2,28H578l-29.6,48v36.8h175.201c18.399,0,27.199,7.2,27.199,26.4
		c0,18.4-10.399,27.2-27.199,27.2H548.4v141.601c0,21.6-14.4,32.8-36,32.8c-22.4,0-36-11.2-36-32.8V654.401H300.399
		c-17.6,0-27.2-8.8-27.2-27.2s8.8-26.4,27.2-26.4H476.4v-37.6L446,516H301.199c-17.6,0-27.2-8.8-27.2-27.2
		c0-18.4,9.6-27.2,27.2-27.2h111.2l-136.8-212.001c-4-5.6-5.6-11.2-5.6-16.8c0-12.8,8.8-24,20.8-30.4c7.2-4,14.4-6.4,21.6-6.4
		c10.4,0,20,4.8,27.2,16.8L512.4,498.4L683.6,212.799z"/>
</g>
<g>
</g>
<g>
</g>
<g>
</g>
<g>
</g>
<g>
</g>
<g>
</g>
<g>
</g>
<g>
</g>
<g>
</g>
<g>
</g>
<g>
</g>
<g>
</g>
<g>
</g>
<g>
</g>
<g>
</g>
</svg>
